<svg viewBox="0 0 64 72" xmlns="http://www.w3.org/2000/svg" aria-hidden="true" role="img" preserveAspectRatio="xMidYMid meet">
  <!-- Left antler - grand multi-tined royal -->
  <path d="M24 28 C22 22 18 14 14 10 C12 6 10.5 2.5 9 0.5 C8 0 7 1 8.5 3 C9 4 10 5 10.5 6 C7 3 3 0.5 1.5 0.5 C0.5 0.5 1 3 3 4 C6 5.5 9 6.5 10 7.5 C6 6.5 2 7 0.5 8 C0 9 2 10 4 10 C7 10 9 10.5 10 11 C13 16 17 22 21 27 Z" fill="#7A5C40"/>
  <!-- Left brow tine -->
  <path d="M18 18 C17 13 16.5 7 18 3 C18.5 1.5 17 1 16 3 C14.5 7 15 13 17 18 Z" fill="#7A5C40"/>
  <!-- Right antler - grand multi-tined royal -->
  <path d="M40 28 C42 22 46 14 50 10 C52 6 53.5 2.5 55 0.5 C56 0 57 1 55.5 3 C55 4 54 5 53.5 6 C57 3 61 0.5 62.5 0.5 C63.5 0.5 63 3 61 4 C58 5.5 55 6.5 54 7.5 C58 6.5 62 7 63.5 8 C64 9 62 10 60 10 C57 10 55 10.5 54 11 C51 16 47 22 43 27 Z" fill="#7A5C40"/>
  <!-- Right brow tine -->
  <path d="M46 18 C47 13 47.5 7 46 3 C45.5 1.5 47 1 48 3 C49.5 7 49 13 47 18 Z" fill="#7A5C40"/>
  <!-- Left ear -->
  <path d="M14 35C10 32 6 28 5 24c-0.7-2.5 0-4.5 2-4.5s5.5 4 8 9z" fill="#A07050"/>
  <path d="M14.5 33.5C11.5 31 8.5 28 7.5 25c-0.4-1.5 0.5-2.5 1.5-2.5s4 3 5.5 6.5z" fill="#E8A0A0"/>
  <!-- Right ear -->
  <path d="M50 35C54 32 58 28 59 24c0.7-2.5 0-4.5-2-4.5s-5.5 4-8 9z" fill="#A07050"/>
  <path d="M49.5 33.5C52.5 31 55.5 28 56.5 25c0.4-1.5-0.5-2.5-1.5-2.5s-4 3-5.5 6.5z" fill="#E8A0A0"/>
  <!-- Head -->
  <ellipse cx="32" cy="43" rx="18" ry="25" fill="#A07050"/>
  <ellipse cx="32" cy="45" rx="13" ry="20" fill="#B88A60"/>
  <!-- Eyes - wide elegant almond -->
  <path d="M18 39.5C20 36 24.5 34 29 35C30 35.3 30 36.8 29 37.8C26 40.5 22 41.5 19 41C18 40.7 17.5 40.5 18 39.5Z" fill="#3D2D20"/>
  <path d="M46 39.5C44 36 39.5 34 35 35C34 35.3 34 36.8 35 37.8C38 40.5 42 41.5 45 41C46 40.7 46.5 40.5 46 39.5Z" fill="#3D2D20"/>
  <!-- Nose -->
  <path d="M32 49c-6 0-10 3-10 7 0 3.5 3 6 5.5 7 1.5 0.5 2.8 0.8 4.5 0.8s3-0.3 4.5-0.8c2.5-1 5.5-3.5 5.5-7 0-4-4-7-10-7z" fill="#5C4030"/>
  <ellipse cx="29.5" cy="53.5" rx="2.5" ry="1.8" fill="#7A5C40" opacity="0.25"/>
  <ellipse cx="29" cy="55" rx="1.5" ry="1.1" fill="#3D2D20" opacity="0.5"/>
  <ellipse cx="35" cy="55" rx="1.5" ry="1.1" fill="#3D2D20" opacity="0.5"/>
  <!-- Chin -->
  <path d="M26 59c0 0 2 5 6 5s6-5 6-5c-1.5 1.5-3.5 2.5-6 2.5s-4.5-1-6-2.5z" fill="#E8DDD0"/>
  <!-- Cheek blush -->
  <ellipse cx="18" cy="46" rx="3.2" ry="1.8" fill="#E8A0A0" opacity="0.4"/>
  <ellipse cx="46" cy="46" rx="3.2" ry="1.8" fill="#E8A0A0" opacity="0.4"/>
</svg>
